<?xml version="1.0" standalone="no"?>
<!DOCTYPE svg PUBLIC "-//W3C//DTD SVG 20010904//EN"
 "http://www.w3.org/TR/2001/REC-SVG-20010904/DTD/svg10.dtd">
<svg version="1.0" xmlns="http://www.w3.org/2000/svg"
 width="260.000000pt" height="260.000000pt" viewBox="0 0 260.000000 260.000000"
 preserveAspectRatio="xMidYMid meet">
<metadata>
Created by potrace 1.11, written by Peter Selinger 2001-2013
</metadata>
<g transform="translate(0.000000,260.000000) scale(0.100000,-0.100000)"
fill="#000000" stroke="none">
<path d="M545 2291 c-12 -5 -26 -15 -32 -22 -10 -14 -131 -232 -228 -414 -26
-49 -51 -94 -55 -100 -5 -5 -22 -37 -39 -70 -30 -60 -35 -111 -13 -139 8 -9
296 -524 385 -686 16 -30 38 -68 47 -85 10 -16 29 -51 44 -77 14 -27 38 -69
52 -95 71 -127 101 -181 119 -216 27 -51 54 -75 92 -81 63 -12 117 33 116 97
0 23 -71 158 -243 467 -134 239 -259 464 -278 500 -20 36 -46 82 -59 103 -16
25 -19 37 -11 38 67 4 668 2 668 -2 0 -4 -38 -79 -85 -168 -97 -184 -103 -214
-56 -262 34 -33 91 -40 128 -14 12 8 65 98 118 200 53 102 99 185 103 185 4 0
53 -79 110 -174 57 -95 114 -184 128 -197 25 -23 28 -24 232 -24 l208 0 -67
-120 c-36 -66 -85 -156 -109 -200 -24 -44 -56 -102 -72 -130 -73 -128 -100
-193 -93 -223 14 -66 93 -99 150 -64 29 18 55 63 271 462 22 41 53 98 68 125
16 28 43 77 61 110 33 61 68 125 137 250 97 175 104 207 52 256 -25 24 -28 24
-252 25 -254 2 -273 -2 -298 -62 -17 -42 -10 -74 23 -106 23 -22 32 -23 154
-23 79 0 129 -4 129 -10 0 -5 -11 -28 -23 -50 l-23 -40 -216 -3 -217 -2 -120
200 -121 201 98 227 97 227 278 0 277 0 32 -90 c36 -101 55 -124 98 -126 17
-1 36 -2 43 -3 29 -4 58 19 68 55 11 34 8 49 -31 161 -50 144 -65 173 -97 187
-33 15 -743 15 -776 0 -32 -14 -41 -31 -142 -269 -48 -113 -88 -206 -90 -208
-1 -1 -55 96 -120 215 -65 120 -127 228 -138 240 -55 61 -166 20 -167 -61 0
-18 46 -112 126 -259 69 -126 123 -231 121 -233 -2 -2 -155 -3 -340 -2 l-337
3 119 217 c65 120 123 230 129 246 11 31 -3 77 -31 100 -20 17 -76 24 -102 13z"/>
</g>
</svg>
